<svg width="14" height="16" viewBox="0 0 14 16" fill="none" xmlns="http://www.w3.org/2000/svg">
<path d="M7.00004 8.99967C7.92052 8.99967 8.66671 8.25348 8.66671 7.33301C8.66671 6.41253 7.92052 5.66634 7.00004 5.66634C6.07957 5.66634 5.33337 6.41253 5.33337 7.33301C5.33337 8.25348 6.07957 8.99967 7.00004 8.99967Z" fill="#24292E"/>
<path fill-rule="evenodd" clip-rule="evenodd" d="M11.7141 2.28563C9.11059 -0.317866 4.88949 -0.317866 2.286 2.28563C-0.3175 4.88913 -0.3175 9.11023 2.286 11.7137L2.30446 11.7321L5.8882 15.3159C6.50228 15.9299 7.49791 15.9299 8.112 15.3159L11.7141 11.7137C14.3176 9.11022 14.3176 4.88911 11.7141 2.28563ZM2.9931 2.99274C5.20607 0.779765 8.79401 0.779765 11.007 2.99274C13.2199 5.20569 13.22 8.79365 11.007 11.0066L7.40489 14.6088C7.18133 14.8323 6.81887 14.8323 6.59531 14.6088L3.01021 11.0237L3.00885 11.0223L2.9931 11.0066C0.780131 8.79364 0.780131 5.20571 2.9931 2.99274Z" fill="#24292E"/>
</svg>
