<svg width="12" height="12" viewBox="0 0 12 12" fill="none" xmlns="http://www.w3.org/2000/svg">
<path d="M11.0417 10.7692L8.88932 8.59077C9.69191 7.68 10.1905 6.47385 10.1905 5.15692C10.1905 2.31385 7.90432 0 5.09525 0C2.28617 0 0 2.31385 0 5.15692C0 8 2.28617 10.3138 5.09525 10.3138C6.09241 10.3138 7.0166 10.0185 7.79488 9.52615L10.0324 11.7908C10.1662 11.9262 10.3486 12 10.531 12C10.7134 12 10.8958 11.9262 11.0296 11.7908C11.3214 11.5077 11.3214 11.0523 11.0417 10.7692ZM1.42278 5.15692C1.42278 3.11385 3.06444 1.44 5.09525 1.44C7.12605 1.44 8.75555 3.11385 8.75555 5.15692C8.75555 7.2 7.11389 8.87385 5.09525 8.87385C3.0766 8.87385 1.42278 7.21231 1.42278 5.15692Z" fill="#E73439"/>
</svg>
